<svg height="18" viewBox="0 0 20 18" width="20" xmlns="http://www.w3.org/2000/svg"><path d="m17.48 4.04-1.28-2.4a3.258 3.258 0 0 0 -2.84-1.64 2.983 2.983 0 0 0 -1.52.4l-6.64 3.6h-2a3.209 3.209 0 0 0 -3.2 3.2v7.6a3.209 3.209 0 0 0 3.2 3.2h13.6a3.209 3.209 0 0 0 3.2-3.2v-7.6a3.223 3.223 0 0 0 -2.52-3.16zm-4.68-1.88a1 1 0 0 1 .56-.16 1.153 1.153 0 0 1 1.04.64l.72 1.36h-5.72zm5.2 12.64a1.2 1.2 0 0 1 -1.2 1.2h-13.6a1.2 1.2 0 0 1 -1.2-1.2v-7.6a1.2 1.2 0 0 1 1.2-1.2h13.6a1.2 1.2 0 0 1 1.2 1.2z" fill="#111"/><path d="m21 22h-10a.99.99 0 0 1 -1-1 .99.99 0 0 1 1-1h10a.99.99 0 0 1 1 1 1.016 1.016 0 0 1 -1 1z" fill="#0864b1" transform="translate(-6 -12)"/></svg>