<svg height="19.555" viewBox="0 0 19.555 19.555" width="19.555" xmlns="http://www.w3.org/2000/svg"><g fill="#ec4f4f"><path d="m9.778 19.555a9.778 9.778 0 1 1 9.778-9.778 9.789 9.789 0 0 1 -9.778 9.778zm0-18.222a8.445 8.445 0 1 0 8.445 8.445 8.454 8.454 0 0 0 -8.445-8.445z"/><path d="m7.365.236a.667.667 0 0 0 -.942 0l-2.529 2.631-2.751-2.667a.667.667 0 1 0 -.924.96l2.733 2.632-2.733 2.631a.667.667 0 1 0 .924.96l2.751-2.667 2.529 2.631a.667.667 0 1 0 .96-.924l-2.546-2.667 2.546-2.667a.667.667 0 0 0 -.018-.853z" transform="translate(5.986 5.95)"/></g></svg>