<svg height="20" viewBox="0 0 14.513 20" width="14.513" xmlns="http://www.w3.org/2000/svg"><path d="m14.147 2.856-3.347-2.612a1.117 1.117 0 0 0 -1.592.2l-7.714 9.8a.906.906 0 0 0 -.2.449l-1.146 4.856a1.064 1.064 0 0 0 .408 1.143 1.184 1.184 0 0 0 1.224.122l4.449-2.244a1.6 1.6 0 0 0 .408-.327l7.714-9.755a1.2 1.2 0 0 0 -.204-1.632zm-8.979 10-2.568 1.306.653-2.816 4.527-5.756 1.92 1.51zm5.755-7.347-1.923-1.509 1.27-1.593 1.918 1.51z" fill="#111" transform="translate(-.066 .002)"/><path d="m13.265 46.041h-12.245a1.01 1.01 0 0 1 -1.02-1.021 1.01 1.01 0 0 1 1.02-1.02h12.245a1.01 1.01 0 0 1 1.02 1.02 1.01 1.01 0 0 1 -1.02 1.021z" fill="#0864b1" transform="translate(0 -26.041)"/></svg>