<svg height="50" viewBox="0 0 50 50" width="50" xmlns="http://www.w3.org/2000/svg"><circle cx="25" cy="25" fill="#dc4e41" r="25"/><path d="m19.523 45.767a10.362 10.362 0 0 1 17.177-7.751c-.842.926-1.7 1.841-2.613 2.7-1.807-1.1-3.982-1.934-6.093-1.191a6.511 6.511 0 1 0 4.385 12.25 5.7 5.7 0 0 0 3.347-3.9c-1.968-.039-3.937-.015-5.906-.069 0-1.171-.01-2.338 0-3.509 3.283 0 6.57-.015 9.858.015.2 2.87-.221 5.94-2.087 8.244-2.554 3.288-7.274 4.252-11.113 2.963a10.3 10.3 0 0 1 -6.955-9.752z" fill="#fff" transform="translate(-4.58 -20.54)"/></svg>