<svg height="20" viewBox="0 0 20 20" width="20" xmlns="http://www.w3.org/2000/svg"><path d="m26.9 0h-8.185a2.692 2.692 0 0 0 -2.715 2.715v3.113a1 1 0 1 0 2 0v-3.113a.716.716 0 0 1 .715-.715h8.185a.716.716 0 0 1 .719.719v14.566a.716.716 0 0 1 -.719.715h-8.185a.716.716 0 0 1 -.715-.715v-3.513a1 1 0 1 0 -2 0v3.513a2.717 2.717 0 0 0 2.715 2.715h8.185a2.717 2.717 0 0 0 2.715-2.715v-14.57a2.743 2.743 0 0 0 -2.715-2.715z" fill="#111" transform="translate(-9.613)"/><path d="m15.17 18.439c.04 0 .04 0 .08-.04a.147.147 0 0 0 .12-.04.139.139 0 0 0 .08-.04c.04 0 .04-.04.08-.04a.933.933 0 0 0 .278-.279c0-.04.04-.04.04-.08a.139.139 0 0 1 .04-.08c0-.04.04-.08.04-.12s0-.04.04-.08a.68.68 0 0 0 0-.4c0-.04 0-.04-.04-.08a.147.147 0 0 0 -.04-.12.139.139 0 0 0 -.04-.08c0-.04-.04-.04-.04-.08-.04-.04-.08-.12-.12-.16l-3.673-3.673a.988.988 0 0 0 -1.4 1.4l1.96 1.953h-11.575a1.049 1.049 0 0 0 -1 1.038.988.988 0 0 0 1 1h14.17z" fill="#111" transform="translate(0 -7.66)"/><path d="m25.949 31.006 1.756-1.756a.964.964 0 0 1 1.4 0 .964.964 0 0 1 0 1.4l-1.758 1.75a.964.964 0 0 1 -1.4 0 .964.964 0 0 1 .002-1.394z" fill="#0864b1" transform="translate(-15.41 -17.393)"/></svg>