<svg height="20" viewBox="0 0 19.966 20" width="19.966" xmlns="http://www.w3.org/2000/svg"><path d="m19.56 4.52-2.36-3.44a2.728 2.728 0 0 0 -2.16-1.08h-10.08a2.532 2.532 0 0 0 -2.12 1.12l-2.36 3.44a2.313 2.313 0 0 0 -.48 1.44v11.44a2.578 2.578 0 0 0 2.56 2.56h14.84a2.552 2.552 0 0 0 2.56-2.56v-11.44a2.437 2.437 0 0 0 -.4-1.48zm-4.52-2.52a.57.57 0 0 1 .48.24l1.48 2.16h-6v-2.4zm-10.56.24a.57.57 0 0 1 .48-.24h4.04v2.4h-6zm13.52 15.2a.547.547 0 0 1 -.56.56h-14.88a.547.547 0 0 1 -.56-.56v-10.52a.529.529 0 0 1 .52-.52h15.04a.529.529 0 0 1 .52.52v10.52z" fill="#111"/><path d="m22 23h-6a.99.99 0 0 1 -1-1 .99.99 0 0 1 1-1h6a.99.99 0 0 1 1 1 .99.99 0 0 1 -1 1z" fill="#0864b1" transform="translate(-9 -12.6)"/></svg>