<svg height="88.49" viewBox="0 0 60.821 88.49" width="60.821" xmlns="http://www.w3.org/2000/svg"><path d="m32.292 0c-13.792 0-22.731 5.652-29.746 15.732a4.152 4.152 0 0 0 .895 5.682l7.459 5.653a4.148 4.148 0 0 0 5.747-.717c4.329-5.424 7.541-8.546 14.3-8.546 5.317 0 11.894 3.422 11.894 8.578 0 3.9-3.218 5.9-8.468 8.843-6.122 3.432-14.224 7.7-14.224 18.39v1.692a4.148 4.148 0 0 0 4.151 4.147h12.522a4.148 4.148 0 0 0 4.148-4.148v-1c0-7.408 21.65-7.716 21.65-27.762.001-15.093-15.658-26.544-30.328-26.544zm-1.732 64.546a11.972 11.972 0 1 0 11.972 11.972 11.986 11.986 0 0 0 -11.972-11.972z" transform="translate(-1.8)"/></svg>