<svg height="20" viewBox="0 0 17.603 20" width="17.603" xmlns="http://www.w3.org/2000/svg"><g transform="translate(.006 .006)"><path d="m18.4 41v.4a1.2 1.2 0 1 1 -2.4 0v-.4h-2v.4a3.2 3.2 0 1 0 6.4 0v-.4z" fill="#0864b1" transform="translate(-8.404 -24.606)"/><path d="m16.554 14.394a.973.973 0 0 1 -.96-.96v-4.634a6.8 6.8 0 0 0 -5.8-6.719v-1.045a1.007 1.007 0 0 0 -.879-1.036 1.021 1.021 0 0 0 -1.115 1v1.08a6.8 6.8 0 0 0 -5.8 6.72v4.639a.973.973 0 0 1 -.96.96 1.007 1.007 0 0 0 -1.04.88 1.021 1.021 0 0 0 1 1.12h15.6a1.021 1.021 0 0 0 1-1.12 1.007 1.007 0 0 0 -1.046-.885zm-12.554 0v-5.439a4.9 4.9 0 0 1 4.315-4.919 4.785 4.785 0 0 1 5.279 4.764v5.6z" fill="#111"/></g></svg>