<svg height="20" viewBox="0 0 20 20" width="20" xmlns="http://www.w3.org/2000/svg"><path d="m24.537 21.917 3.6-1.96a.984.984 0 0 0 .32-1.36.984.984 0 0 0 -1.36-.32l-3.6 1.96a.984.984 0 0 0 -.32 1.36.951.951 0 0 0 1.36.32z" fill="#0864b1" transform="translate(-13.817 -10.877)"/><g fill="#111"><path d="m10 0a10 10 0 1 0 10 10 10 10 0 0 0 -10-10zm0 18a8 8 0 1 1 8-8 8.024 8.024 0 0 1 -8 8z"/><path d="m14.309 13.309a.992.992 0 0 0 -1.32 1.48l4.16 4a.992.992 0 0 0 1.32-1.48z" transform="translate(-7.589 -7.829)"/></g></svg>