<svg height="23.633" viewBox="0 0 24.438 23.633" width="24.438" xmlns="http://www.w3.org/2000/svg"><path d="m13.429 17.467a5.317 5.317 0 0 1 5.2 4.3h9.961a1.044 1.044 0 0 1 .939.516 1.064 1.064 0 0 1 0 1.078 1.044 1.044 0 0 1 -.939.516h-9.951a5.3 5.3 0 0 1 -10.412 0h-1.9a1.044 1.044 0 0 1 -.939-.516 1.064 1.064 0 0 1 0-1.078 1.044 1.044 0 0 1 .939-.516h1.9a5.317 5.317 0 0 1 5.202-4.3zm0 2.106a3.249 3.249 0 1 0 3.22 3.248 3.235 3.235 0 0 0 -3.222-3.248zm5.256-15.028a5.322 5.322 0 0 1 5.206 4.3h4.709a1.055 1.055 0 0 1 0 2.11h-4.711a5.3 5.3 0 0 1 -10.412 0h-7.15a1.055 1.055 0 0 1 0-2.11h7.151a5.322 5.322 0 0 1 5.207-4.3zm-.007 2.108a3.22 3.22 0 0 0 -2.978 2.006 3.269 3.269 0 0 0 .7 3.54 3.2 3.2 0 0 0 3.509.7 3.249 3.249 0 0 0 1.988-3 3.248 3.248 0 0 0 -.941-2.3 3.206 3.206 0 0 0 -2.279-.946z" transform="translate(-5.239 -4.545)"/></svg>