<svg height="19.995" viewBox="0 0 19.995 19.995" width="19.995" xmlns="http://www.w3.org/2000/svg"><path d="m19.348 20a.648.648 0 0 1 -.458-.187l-5.183-5.1a8.512 8.512 0 0 1 -5.295 1.849 8.356 8.356 0 0 1 -8.412-8.284 8.356 8.356 0 0 1 8.412-8.278 8.356 8.356 0 0 1 8.413 8.278 8.182 8.182 0 0 1 -2.182 5.549l5.162 5.08a.629.629 0 0 1 0 .9.648.648 0 0 1 -.457.193zm-10.936-18.727a7.07 7.07 0 0 0 -7.118 7 7.071 7.071 0 0 0 7.118 7.006 7.071 7.071 0 0 0 7.118-7.001 7.07 7.07 0 0 0 -7.118-7.005z" fill="#131314"/></svg>