<svg height="17" viewBox="0 0 15.4 17" width="15.4" xmlns="http://www.w3.org/2000/svg"><g fill="none" stroke="#000" stroke-linecap="round" stroke-linejoin="round"><path d="m27.3 5.4a2.4 2.4 0 1 1 -2.4-2.4 2.4 2.4 0 0 1 2.4 2.4z" transform="translate(-12.4 -2.5)"/><path d="m9.3 15.9a2.4 2.4 0 1 1 -2.4-2.4 2.4 2.4 0 0 1 2.4 2.4z" transform="translate(-4 -7.4)"/><path d="m27.3 26.4a2.4 2.4 0 1 1 -2.4-2.4 2.4 2.4 0 0 1 2.4 2.4z" transform="translate(-12.4 -12.3)"/><path d="m12.885 20.265 5.464 3.184" transform="translate(-7.913 -10.557)"/><path d="m18.341 9.765-5.456 3.184" transform="translate(-7.913 -5.657)"/></g></svg>