<svg height="18.573" viewBox="0 0 36 18.573" width="36" xmlns="http://www.w3.org/2000/svg"><path d="m9.739 145.854h26.28a8.8 8.8 0 0 0 4.7-1.36 3.828 3.828 0 0 0 -1.015-6.924l-4.5-1.255q-.42-.117-.828-.268l.045-.046a.541.541 0 1 0 -.772-.758l-.341.347a11.059 11.059 0 0 1 -1.037-.59l.01-.009a.541.541 0 1 0 -.715-.812l-.2.178q-.368-.29-.711-.61l.239-.237a.541.541 0 1 0 -.762-.768l-.23.228q-.281-.32-.537-.662l-.017-.022.211-.188a.541.541 0 1 0 -.718-.809l-.143.127-.852-1.14a7.468 7.468 0 0 0 -4.6-2.873 1.181 1.181 0 0 0 -1.317 1.6l.1.262a7.254 7.254 0 0 1 .429 1.141 1.174 1.174 0 0 1 -.086.7 1.16 1.16 0 0 1 -.681.608c-2.368.8-5.764 1.8-7.9 1.287a2.125 2.125 0 0 1 -1.6-1.97l-.123-3.232a.541.541 0 0 0 -.541-.52h-1.649a2.5 2.5 0 0 0 -2.5 2.566l.206 7.519-1 4.562a3.231 3.231 0 0 0 3.156 3.926zm30.407-2.275a7.723 7.723 0 0 1 -4.127 1.193h-26.28a2.149 2.149 0 0 1 -2.1-2.611l.6-2.739 1.355-.311a12.533 12.533 0 0 1 9.493 1.609 12.9 12.9 0 0 0 6.558 1.793h10.942a7.535 7.535 0 0 0 4.8-1.726c0 .024.01.048.013.072a2.747 2.747 0 0 1 -1.254 2.72zm-18.8-2.96.961-1.238a2.908 2.908 0 0 1 2.734-1.092l.262.04a2.92 2.92 0 0 1 2.258 1.791l.526 1.311h-2.438a11.818 11.818 0 0 1 -4.299-.811zm19.611-.887a9.056 9.056 0 0 1 -.794.613c-.115-.074-.1-.055-1.324-.357a1.973 1.973 0 0 1 -1.493-1.741l-.019-.216 2.086.582a2.745 2.745 0 0 1 1.543 1.119zm-29.853-8.658a3.215 3.215 0 0 0 2.42 2.98c2.389.575 5.8-.4 8.506-1.312a2.243 2.243 0 0 0 .852-.522 1.2 1.2 0 0 1 -.708 1.048l-1.32.582-.343.152a11.8 11.8 0 0 1 -7.433.68 3.254 3.254 0 0 1 -2.507-3.138l-.033-3.181h.462zm-2.245-2.283a1.417 1.417 0 0 1 .6-.365l.033 3.129a4.335 4.335 0 0 0 3.34 4.179 12.881 12.881 0 0 0 8.12-.743l.343-.152 1.32-.582a2.286 2.286 0 0 0 1.274-2.687 13.311 13.311 0 0 0 -.855-2.707l-.1-.262a.1.1 0 0 1 .016-.1.1.1 0 0 1 .093-.034 6.389 6.389 0 0 1 3.937 2.458l.906 1.213-.119.106a.541.541 0 1 0 .718.81l.052-.046q.3.391.62.755a.541.541 0 0 0 .7.721q.354.335.734.641a.54.54 0 0 0 .839.618 12.18 12.18 0 0 0 1.2.713.541.541 0 0 0 .924.435 11.946 11.946 0 0 0 1.361.471l1.3.362c.009.1.03.337.056.623a3.056 3.056 0 0 0 2.313 2.7l.125.031a6.448 6.448 0 0 1 -2.123.361h-7.33l-.687-1.714a4.008 4.008 0 0 0 -3.1-2.458l-.257-.039a3.992 3.992 0 0 0 -3.756 1.5l-1.124 1.448a14.274 14.274 0 0 0 -10.977-2.109l-.856.2.158-.719a.544.544 0 0 0 .012-.131l-.208-7.586a1.424 1.424 0 0 1 .402-1.04z" transform="translate(-6.508 -127.281)"/></svg>