<svg height="17.274" viewBox="0 0 20 17.274" width="20" xmlns="http://www.w3.org/2000/svg"><g transform="translate(.103)"><path d="m18.334 1.617a5.531 5.531 0 0 0 -3.962-1.617 5.6 5.6 0 0 0 -3.962 1.617l-.526.526-.484-.526a5.531 5.531 0 0 0 -3.963-1.617 5.6 5.6 0 0 0 -3.962 1.617 5.712 5.712 0 0 0 .125 8.005l.4.4 6.792 6.792a1.586 1.586 0 0 0 2.224 0l6.792-6.792.4-.4a5.75 5.75 0 0 0 .126-8.005zm-.4 4.2a3.687 3.687 0 0 1 -1.134 2.39l-.445.445-6.471 6.469-6.468-6.469-.445-.445a3.792 3.792 0 0 1 -1.132-2.385 3.48 3.48 0 0 1 1.051-2.749 3.623 3.623 0 0 1 2.749-1.051 3.687 3.687 0 0 1 2.386 1.132l.445.445.768.768 1.051 1.051a1.058 1.058 0 1 0 1.5-1.5l-.4-.4.445-.445a3.685 3.685 0 0 1 2.547-1.051 3.453 3.453 0 0 1 2.507 1.051 3.48 3.48 0 0 1 1.042 2.749z" fill="#111"/><path d="m13.573 18.288-1.819-1.819a.977.977 0 0 1 0-1.415.977.977 0 0 1 1.415 0l1.819 1.819a.977.977 0 0 1 0 1.415.977.977 0 0 1 -1.415 0z" fill="#0864b1" transform="translate(-6.882 -8.787)"/></g></svg>